<?xml version="1.0" encoding="UTF-8" standalone="no"?>
<svg
   xmlns:dc="http://purl.org/dc/elements/1.1/"
   xmlns:cc="http://creativecommons.org/ns#"
   xmlns:rdf="http://www.w3.org/1999/02/22-rdf-syntax-ns#"
   xmlns:svg="http://www.w3.org/2000/svg"
   xmlns="http://www.w3.org/2000/svg"
   xmlns:sodipodi="http://sodipodi.sourceforge.net/DTD/sodipodi-0.dtd"
   xmlns:inkscape="http://www.inkscape.org/namespaces/inkscape"
   class="lds-gear"
   width="100px"
   height="100px"
   viewBox="0 0 100 100"
   preserveAspectRatio="xMidYMid"
   style="background: rgba(0, 0, 0, 0) none repeat scroll 0% 0%;"
   id="svg2"
   version="1.1"
   inkscape:version="0.91 r13725"
   sodipodi:docname="spinner.svg">
  <metadata
     id="metadata14">
    <rdf:RDF>
      <cc:Work
         rdf:about="">
        <dc:format>image/svg+xml</dc:format>
        <dc:type
           rdf:resource="http://purl.org/dc/dcmitype/StillImage" />
      </cc:Work>
    </rdf:RDF>
  </metadata>
  <defs
     id="defs12" />
  <sodipodi:namedview
     pagecolor="#ffffff"
     bordercolor="#666666"
     borderopacity="1"
     objecttolerance="10"
     gridtolerance="10"
     guidetolerance="10"
     inkscape:pageopacity="0"
     inkscape:pageshadow="2"
     inkscape:window-width="1920"
     inkscape:window-height="1028"
     id="namedview10"
     showgrid="false"
     inkscape:zoom="2.36"
     inkscape:cx="50"
     inkscape:cy="50"
     inkscape:window-x="-8"
     inkscape:window-y="-8"
     inkscape:window-maximized="1"
     inkscape:current-layer="svg2" />
  <g
     transform="translate(50 50)"
     id="g4"
     style="fill:#64ccbc;fill-opacity:1">
    <g
       id="g6"
       style="fill:#64ccbc;fill-opacity:1">
      <animateTransform
         attributeName="transform"
         type="rotate"
         values="0;360"
         keyTimes="0;1"
         dur="3s"
         repeatCount="indefinite" />
      <path
         d="M37.43995192304605 -6.5 L47.43995192304605 -6.5 L47.43995192304605 6.5 L37.43995192304605 6.5 A38 38 0 0 1 35.67394948182593 13.090810836924174 L35.67394948182593 13.090810836924174 L44.33420351967032 18.090810836924174 L37.83420351967032 29.34914108612188 L29.17394948182593 24.34914108612188 A38 38 0 0 1 24.34914108612188 29.17394948182593 L24.34914108612188 29.17394948182593 L29.34914108612188 37.83420351967032 L18.090810836924184 44.33420351967032 L13.090810836924183 35.67394948182593 A38 38 0 0 1 6.5 37.43995192304605 L6.5 37.43995192304605 L6.500000000000001 47.43995192304605 L-6.499999999999995 47.43995192304606 L-6.499999999999996 37.43995192304606 A38 38 0 0 1 -13.09081083692417 35.67394948182593 L-13.09081083692417 35.67394948182593 L-18.09081083692417 44.33420351967032 L-29.34914108612187 37.834203519670325 L-24.349141086121872 29.173949481825936 A38 38 0 0 1 -29.17394948182592 24.34914108612189 L-29.17394948182592 24.34914108612189 L-37.83420351967031 29.349141086121893 L-44.33420351967031 18.0908108369242 L-35.67394948182592 13.090810836924193 A38 38 0 0 1 -37.43995192304605 6.5000000000000036 L-37.43995192304605 6.5000000000000036 L-47.43995192304605 6.500000000000004 L-47.43995192304606 -6.499999999999993 L-37.43995192304606 -6.499999999999994 A38 38 0 0 1 -35.67394948182593 -13.090810836924167 L-35.67394948182593 -13.090810836924167 L-44.33420351967032 -18.090810836924163 L-37.834203519670325 -29.34914108612187 L-29.173949481825936 -24.34914108612187 A38 38 0 0 1 -24.349141086121893 -29.17394948182592 L-24.349141086121893 -29.17394948182592 L-29.349141086121897 -37.834203519670304 L-18.0908108369242 -44.334203519670304 L-13.090810836924195 -35.67394948182592 A38 38 0 0 1 -6.500000000000005 -37.43995192304605 L-6.500000000000005 -37.43995192304605 L-6.500000000000007 -47.43995192304605 L6.49999999999999 -47.43995192304606 L6.499999999999992 -37.43995192304606 A38 38 0 0 1 13.090810836924149 -35.67394948182594 L13.090810836924149 -35.67394948182594 L18.090810836924142 -44.33420351967033 L29.349141086121847 -37.83420351967034 L24.349141086121854 -29.17394948182595 A38 38 0 0 1 29.17394948182592 -24.349141086121893 L29.17394948182592 -24.349141086121893 L37.834203519670304 -29.349141086121897 L44.334203519670304 -18.0908108369242 L35.67394948182592 -13.090810836924197 A38 38 0 0 1 37.43995192304605 -6.500000000000007 M0 -20A20 20 0 1 0 0 20 A20 20 0 1 0 0 -20"
         fill="#c5523f"
         id="path8"
         style="fill:#64ccbc;fill-opacity:1" />
    </g>
  </g>
</svg>
